<?xml version="1.0" encoding="UTF-8" standalone="no"?>
<!DOCTYPE svg PUBLIC "-//W3C//DTD SVG 1.1//EN"
 "http://www.w3.org/Graphics/SVG/1.1/DTD/svg11.dtd">
<!-- Generated by graphviz version 2.47.3 (20210619.1520)
 -->
<!-- Title: dependencies Pages: 1 -->
<svg width="498pt" height="174pt"
 viewBox="0.00 0.00 498.00 173.80" xmlns="http://www.w3.org/2000/svg" xmlns:xlink="http://www.w3.org/1999/xlink">
<g id="graph0" class="graph" transform="scale(1 1) rotate(0) translate(4 169.8)">
<title>dependencies</title>
<polygon fill="white" stroke="transparent" points="-4,4 -4,-169.8 494,-169.8 494,4 -4,4"/>
<text text-anchor="middle" x="245" y="-8.2" font-family="sans-serif" font-size="14.00">dependencies</text>
<g id="clust1" class="cluster">
<title>cluster_CvModule</title>
<polygon fill="none" stroke="black" stroke-dasharray="1,5" points="8,-32.8 8,-157.8 482,-157.8 482,-32.8 8,-32.8"/>
</g>
<g id="clust3" class="cluster">
<title>cluster_CvModule_imports</title>
<polygon fill="none" stroke="black" points="268,-40.8 268,-92.8 474,-92.8 474,-40.8 268,-40.8"/>
</g>
<g id="clust6" class="cluster">
<title>cluster_CvModule_providers</title>
<polygon fill="none" stroke="black" points="16,-40.8 16,-92.8 260,-92.8 260,-40.8 16,-40.8"/>
</g>
<!-- MailModule -->
<g id="node1" class="node">
<title>MailModule</title>
<polygon fill="#8dd3c7" stroke="black" points="465.99,-84.8 462.99,-88.8 441.99,-88.8 438.99,-84.8 380.01,-84.8 380.01,-48.8 465.99,-48.8 465.99,-84.8"/>
<text text-anchor="middle" x="423" y="-62.6" font-family="Times,serif" font-size="14.00">MailModule</text>
</g>
<!-- CvModule -->
<g id="node3" class="node">
<title>CvModule</title>
<polygon fill="#8dd3c7" stroke="black" points="295.89,-149.8 292.89,-153.8 271.89,-153.8 268.89,-149.8 220.11,-149.8 220.11,-113.8 295.89,-113.8 295.89,-149.8"/>
<text text-anchor="middle" x="258" y="-127.6" font-family="Times,serif" font-size="14.00">CvModule</text>
</g>
<!-- MailModule&#45;&gt;CvModule -->
<g id="edge1" class="edge">
<title>MailModule&#45;&gt;CvModule</title>
<path fill="none" stroke="black" d="M423,-84.91C423,-104.14 423,-131.8 423,-131.8 423,-131.8 306.27,-131.8 306.27,-131.8"/>
<polygon fill="black" stroke="black" points="306.27,-128.3 296.27,-131.8 306.27,-135.3 306.27,-128.3"/>
</g>
<!-- UserModule -->
<g id="node2" class="node">
<title>UserModule</title>
<polygon fill="#8dd3c7" stroke="black" points="361.98,-84.8 358.98,-88.8 337.98,-88.8 334.98,-84.8 276.02,-84.8 276.02,-48.8 361.98,-48.8 361.98,-84.8"/>
<text text-anchor="middle" x="319" y="-62.6" font-family="Times,serif" font-size="14.00">UserModule</text>
</g>
<!-- UserModule&#45;&gt;CvModule -->
<g id="edge2" class="edge">
<title>UserModule&#45;&gt;CvModule</title>
<path fill="none" stroke="black" d="M285.98,-84.91C285.98,-84.91 285.98,-103.79 285.98,-103.79"/>
<polygon fill="black" stroke="black" points="282.48,-103.79 285.98,-113.79 289.48,-103.79 282.48,-103.79"/>
</g>
<!-- CvListener -->
<g id="node4" class="node">
<title>CvListener</title>
<ellipse fill="#fdb462" stroke="black" cx="198" cy="-66.8" rx="53.89" ry="18"/>
<text text-anchor="middle" x="198" y="-62.6" font-family="Times,serif" font-size="14.00">CvListener</text>
</g>
<!-- CvListener&#45;&gt;CvModule -->
<g id="edge3" class="edge">
<title>CvListener&#45;&gt;CvModule</title>
<path fill="none" stroke="black" d="M236,-79.64C236,-79.64 236,-103.32 236,-103.32"/>
<polygon fill="black" stroke="black" points="232.5,-103.32 236,-113.32 239.5,-103.32 232.5,-103.32"/>
</g>
<!-- CvService -->
<g id="node5" class="node">
<title>CvService</title>
<ellipse fill="#fdb462" stroke="black" cx="75" cy="-66.8" rx="51.02" ry="18"/>
<text text-anchor="middle" x="75" y="-62.6" font-family="Times,serif" font-size="14.00">CvService</text>
</g>
<!-- CvService&#45;&gt;CvModule -->
<g id="edge4" class="edge">
<title>CvService&#45;&gt;CvModule</title>
<path fill="none" stroke="black" d="M75,-84.91C75,-104.14 75,-131.8 75,-131.8 75,-131.8 210.08,-131.8 210.08,-131.8"/>
<polygon fill="black" stroke="black" points="210.08,-135.3 220.08,-131.8 210.08,-128.3 210.08,-135.3"/>
</g>
</g>
</svg>
