<?xml version="1.0" encoding="UTF-8" standalone="no"?>
<!DOCTYPE svg PUBLIC "-//W3C//DTD SVG 1.1//EN"
 "http://www.w3.org/Graphics/SVG/1.1/DTD/svg11.dtd">
<!-- Generated by graphviz version 2.47.3 (20210619.1520)
 -->
<!-- Title: dependencies Pages: 1 -->
<svg width="586pt" height="247pt"
 viewBox="0.00 0.00 586.00 246.80" xmlns="http://www.w3.org/2000/svg" xmlns:xlink="http://www.w3.org/1999/xlink">
<g id="graph0" class="graph" transform="scale(1 1) rotate(0) translate(4 242.8)">
<title>dependencies</title>
<polygon fill="white" stroke="transparent" points="-4,4 -4,-242.8 582,-242.8 582,4 -4,4"/>
<text text-anchor="middle" x="289" y="-8.2" font-family="sans-serif" font-size="14.00">dependencies</text>
<g id="clust1" class="cluster">
<title>cluster_AppModule</title>
<polygon fill="none" stroke="black" stroke-dasharray="1,5" points="8,-32.8 8,-230.8 570,-230.8 570,-32.8 8,-32.8"/>
</g>
<g id="clust6" class="cluster">
<title>cluster_AppModule_providers</title>
<polygon fill="none" stroke="black" points="432,-40.8 432,-92.8 562,-92.8 562,-40.8 432,-40.8"/>
</g>
<g id="clust4" class="cluster">
<title>cluster_AppModule_exports</title>
<polygon fill="none" stroke="black" points="228,-170.8 228,-222.8 330,-222.8 330,-170.8 228,-170.8"/>
</g>
<g id="clust3" class="cluster">
<title>cluster_AppModule_imports</title>
<polygon fill="none" stroke="black" points="16,-40.8 16,-92.8 424,-92.8 424,-40.8 16,-40.8"/>
</g>
<!-- CvModule -->
<g id="node1" class="node">
<title>CvModule</title>
<polygon fill="#8dd3c7" stroke="black" points="415.89,-84.8 412.89,-88.8 391.89,-88.8 388.89,-84.8 340.11,-84.8 340.11,-48.8 415.89,-48.8 415.89,-84.8"/>
<text text-anchor="middle" x="378" y="-62.6" font-family="Times,serif" font-size="14.00">CvModule</text>
</g>
<!-- AppModule -->
<g id="node5" class="node">
<title>AppModule</title>
<polygon fill="#8dd3c7" stroke="black" points="320.66,-149.8 317.66,-153.8 296.66,-153.8 293.66,-149.8 237.34,-149.8 237.34,-113.8 320.66,-113.8 320.66,-149.8"/>
<text text-anchor="middle" x="279" y="-127.6" font-family="Times,serif" font-size="14.00">AppModule</text>
</g>
<!-- CvModule&#45;&gt;AppModule -->
<g id="edge1" class="edge">
<title>CvModule&#45;&gt;AppModule</title>
<path fill="none" stroke="black" d="M378,-84.82C378,-102.17 378,-125.8 378,-125.8 378,-125.8 330.7,-125.8 330.7,-125.8"/>
<polygon fill="black" stroke="black" points="330.7,-122.3 320.7,-125.8 330.7,-129.3 330.7,-122.3"/>
</g>
<!-- MailModule -->
<g id="node2" class="node">
<title>MailModule</title>
<polygon fill="#8dd3c7" stroke="black" points="321.99,-84.8 318.99,-88.8 297.99,-88.8 294.99,-84.8 236.01,-84.8 236.01,-48.8 321.99,-48.8 321.99,-84.8"/>
<text text-anchor="middle" x="279" y="-62.6" font-family="Times,serif" font-size="14.00">MailModule</text>
</g>
<!-- MailModule&#45;&gt;AppModule -->
<g id="edge2" class="edge">
<title>MailModule&#45;&gt;AppModule</title>
<path fill="none" stroke="black" d="M279,-84.91C279,-84.91 279,-103.79 279,-103.79"/>
<polygon fill="black" stroke="black" points="275.5,-103.79 279,-113.79 282.5,-103.79 275.5,-103.79"/>
</g>
<!-- TodoModule -->
<g id="node3" class="node">
<title>TodoModule</title>
<polygon fill="#8dd3c7" stroke="black" points="217.6,-84.8 214.6,-88.8 193.6,-88.8 190.6,-84.8 128.4,-84.8 128.4,-48.8 217.6,-48.8 217.6,-84.8"/>
<text text-anchor="middle" x="173" y="-62.6" font-family="Times,serif" font-size="14.00">TodoModule</text>
</g>
<!-- TodoModule&#45;&gt;AppModule -->
<g id="edge3" class="edge">
<title>TodoModule&#45;&gt;AppModule</title>
<path fill="none" stroke="black" d="M173,-84.82C173,-102.17 173,-125.8 173,-125.8 173,-125.8 227.11,-125.8 227.11,-125.8"/>
<polygon fill="black" stroke="black" points="227.11,-129.3 237.11,-125.8 227.11,-122.3 227.11,-129.3"/>
</g>
<!-- UserModule -->
<g id="node4" class="node">
<title>UserModule</title>
<polygon fill="#8dd3c7" stroke="black" points="109.98,-84.8 106.98,-88.8 85.98,-88.8 82.98,-84.8 24.02,-84.8 24.02,-48.8 109.98,-48.8 109.98,-84.8"/>
<text text-anchor="middle" x="67" y="-62.6" font-family="Times,serif" font-size="14.00">UserModule</text>
</g>
<!-- UserModule&#45;&gt;AppModule -->
<g id="edge4" class="edge">
<title>UserModule&#45;&gt;AppModule</title>
<path fill="none" stroke="black" d="M67,-85.08C67,-106.12 67,-137.8 67,-137.8 67,-137.8 227.12,-137.8 227.12,-137.8"/>
<polygon fill="black" stroke="black" points="227.12,-141.3 237.12,-137.8 227.12,-134.3 227.12,-141.3"/>
</g>
<!-- AppService  -->
<g id="node6" class="node">
<title>AppService </title>
<polygon fill="#fb8072" stroke="black" points="321.59,-214.8 236.41,-214.8 236.41,-178.8 321.59,-178.8 321.59,-214.8"/>
<text text-anchor="middle" x="279" y="-192.6" font-family="Times,serif" font-size="14.00">AppService </text>
</g>
<!-- AppModule&#45;&gt;AppService  -->
<g id="edge5" class="edge">
<title>AppModule&#45;&gt;AppService </title>
<path fill="none" stroke="black" stroke-dasharray="5,2" d="M279,-149.91C279,-149.91 279,-168.79 279,-168.79"/>
<polygon fill="black" stroke="black" points="275.5,-168.79 279,-178.79 282.5,-168.79 275.5,-168.79"/>
</g>
<!-- AppService -->
<g id="node7" class="node">
<title>AppService</title>
<ellipse fill="#fdb462" stroke="black" cx="497" cy="-66.8" rx="56.74" ry="18"/>
<text text-anchor="middle" x="497" y="-62.6" font-family="Times,serif" font-size="14.00">AppService</text>
</g>
<!-- AppService&#45;&gt;AppModule -->
<g id="edge6" class="edge">
<title>AppService&#45;&gt;AppModule</title>
<path fill="none" stroke="black" d="M497,-85.08C497,-106.12 497,-137.8 497,-137.8 497,-137.8 330.77,-137.8 330.77,-137.8"/>
<polygon fill="black" stroke="black" points="330.77,-134.3 320.77,-137.8 330.77,-141.3 330.77,-134.3"/>
</g>
</g>
</svg>
